HIERARCHY
ROOT hips
{
  OFFSET 0 10.6860622 2.3727825e-15
  CHANNELS 6 Xposition Yposition Zposition Yrotation Xrotation Zrotation
  JOINT leftUpperLeg
  {
    OFFSET 0.6642549969 -0.9402397400000004 0
    CHANNELS 3 Yrotation Xrotation Zrotation
    JOINT leftLowerLeg
    {
      OFFSET 0 -3.997221335632195 0
      CHANNELS 3 Yrotation Xrotation Zrotation
      JOINT leftFoot
      {
        OFFSET -0.13777839790000004 -4.6145792000000005 -0.22186036399999998
        CHANNELS 3 Yrotation Xrotation Zrotation
        JOINT leftToes
        {
          OFFSET -0.03777410834999995 -0.9130806927000008 0.85230013
          CHANNELS 3 Yrotation Xrotation Zrotation
          End Site
          {
            OFFSET -0.03777410834999995 -0.9130806927000008 0.85230013
          }
        }
      }
    }
  }
  JOINT rightUpperLeg
  {
    OFFSET -0.6642778626 -0.9402397400000004 0
    CHANNELS 3 Yrotation Xrotation Zrotation
    JOINT rightLowerLeg
    {
      OFFSET 0 -3.997221452859387 0
      CHANNELS 3 Yrotation Xrotation Zrotation
      JOINT rightFoot
      {
        OFFSET 0.1377926176 -4.6145792000000005 -0.22185782299999995
        CHANNELS 3 Yrotation Xrotation Zrotation
        JOINT rightToes
        {
          OFFSET 0.037780746850000047 -0.9130806927000008 0.85230167
          CHANNELS 3 Yrotation Xrotation Zrotation
          End Site
          {
            OFFSET 0.037780746850000047 -0.9130806927000008 0.85230167
          }
        }
      }
    }
  }
  JOINT spine
  {
    OFFSET 0 0.13988381660000015 0
    CHANNELS 3 Yrotation Xrotation Zrotation
    JOINT chest
    {
      OFFSET 0 0.6191039003973773 0
      CHANNELS 3 Yrotation Xrotation Zrotation
      JOINT upperChest
      {
        OFFSET 0 0.9855186130586943 0
        CHANNELS 3 Yrotation Xrotation Zrotation
        JOINT leftShoulder
        {
          OFFSET 0.1807663869 1.5087829790000005 0
          CHANNELS 3 Yrotation Xrotation Zrotation
          JOINT leftUpperArm
          {
            OFFSET 0.5985063006419806 0 0
            CHANNELS 3 Yrotation Xrotation Zrotation
            JOINT leftLowerArm
            {
              OFFSET 2.2993332369501065 0 0
              CHANNELS 3 Yrotation Xrotation Zrotation
              JOINT leftHand
              {
                OFFSET 2.395047042602395 0 0
                CHANNELS 3 Yrotation Xrotation Zrotation
                JOINT leftIndexProximal
                {
                  OFFSET 0.5766295810000004 0.04556643899499946 0.17265095988184
                  CHANNELS 3 Yrotation Xrotation Zrotation
                  JOINT leftIndexIntermediate
                  {
                    OFFSET 0.2957229000000008 -0.019352197700001517 -0.007932640616999987
                    CHANNELS 3 Yrotation Xrotation Zrotation
                    JOINT leftIndexDistal
                    {
                      OFFSET 0.19008243099999922 -0.012484908149998475 -0.002786250786000012
                      CHANNELS 3 Yrotation Xrotation Zrotation
                      End Site
                      {
                        OFFSET 0.19008243099999922 -0.012484908149998475 -0.002786250786000012
                      }
                    }
                  }
                }
                JOINT leftMiddleProximal
                {
                  OFFSET 0.5834975091000001 0.0524350405149987 0.02204081888183999
                  CHANNELS 3 Yrotation Xrotation Zrotation
                  JOINT leftMiddleIntermediate
                  {
                    OFFSET 0.33880573540000003 -0.019871473270000717 -0.00000971183179999946
                    CHANNELS 3 Yrotation Xrotation Zrotation
                    JOINT leftMiddleDistal
                    {
                      OFFSET 0.20676022730000088 -0.012221336379999448 0.0001471936708000235
                      CHANNELS 3 Yrotation Xrotation Zrotation
                      End Site
                      {
                        OFFSET 0.20676022730000088 -0.012221336379999448 0.0001471936708000235
                      }
                    }
                  }
                }
                JOINT leftLittleProximal
                {
                  OFFSET 0.5344154683999995 -0.012880921405001189 -0.24414037221816004
                  CHANNELS 3 Yrotation Xrotation Zrotation
                  JOINT leftLittleIntermediate
                  {
                    OFFSET 0.21758961730000093 -0.011650919939999227 0.011893592810000034
                    CHANNELS 3 Yrotation Xrotation Zrotation
                    JOINT leftLittleDistal
                    {
                      OFFSET 0.1475273964999999 -0.008152365682999818 0.006001092492999946
                      CHANNELS 3 Yrotation Xrotation Zrotation
                      End Site
                      {
                        OFFSET 0.1475273964999999 -0.008152365682999818 0.006001092492999946
                      }
                    }
                  }
                }
                JOINT leftRingProximal
                {
                  OFFSET 0.5799399463000003 0.026911854694997794 -0.12150566991816003
                  CHANNELS 3 Yrotation Xrotation Zrotation
                  JOINT leftRingIntermediate
                  {
                    OFFSET 0.26167887460000006 -0.013480186499999602 0.010996293000000053
                    CHANNELS 3 Yrotation Xrotation Zrotation
                    JOINT leftRingDistal
                    {
                      OFFSET 0.17667108799999987 -0.008990287899999228 0.0055541023999999065
                      CHANNELS 3 Yrotation Xrotation Zrotation
                      End Site
                      {
                        OFFSET 0.17667108799999987 -0.008990287899999228 0.0055541023999999065
                      }
                    }
                  }
                }
                JOINT leftThumbProximal
                {
                  OFFSET 0.11018806699999972 -0.09448718900500053 0.17047963138184
                  CHANNELS 3 Yrotation Xrotation Zrotation
                  JOINT leftThumbIntermediate
                  {
                    OFFSET 0.31062601459999983 -0.08126270900000132 0.15443142000000007
                    CHANNELS 3 Yrotation Xrotation Zrotation
                    JOINT leftThumbDistal
                    {
                      OFFSET 0.21627175790000086 -0.08833193599999878 0.018771167799999988
                      CHANNELS 3 Yrotation Xrotation Zrotation
                      End Site
                      {
                        OFFSET 0.21627175790000086 -0.08833193599999878 0.018771167799999988
                      }
                    }
                  }
                }
              }
            }
          }
        }
        JOINT neck
        {
          OFFSET 0 1.5463305265074576 0
          CHANNELS 3 Yrotation Xrotation Zrotation
          JOINT head
          {
            OFFSET 0 0.8456443600000344 0
            CHANNELS 3 Yrotation Xrotation Zrotation
            JOINT leftEye
            {
              OFFSET 0.30408573140000006 0.5104519199999995 0.1276382305
              CHANNELS 3 Yrotation Xrotation Zrotation
              End Site
              {
                OFFSET 0.30408573140000006 0.5104519199999995 0.1276382305
              }
            }
            JOINT rightEye
            {
              OFFSET -0.30409491089999996 0.5104519199999995 0.1276379445
              CHANNELS 3 Yrotation Xrotation Zrotation
              End Site
              {
                OFFSET -0.30409491089999996 0.5104519199999995 0.1276379445
              }
            }
            JOINT jaw
            {
              OFFSET -3.155239131000001e-7 -0.11984121820000082 0.60178107
              CHANNELS 3 Yrotation Xrotation Zrotation
              End Site
              {
                OFFSET -3.155239131000001e-7 -0.11984121820000082 0.60178107
              }
            }
          }
        }
        JOINT rightShoulder
        {
          OFFSET -0.1807303465 1.5087829790000005 0
          CHANNELS 3 Yrotation Xrotation Zrotation
          JOINT rightUpperArm
          {
            OFFSET -0.5985063796536958 0 0
            CHANNELS 3 Yrotation Xrotation Zrotation
            JOINT rightLowerArm
            {
              OFFSET -2.2993322059002854 0 0
              CHANNELS 3 Yrotation Xrotation Zrotation
              JOINT rightHand
              {
                OFFSET -2.395045314457259 0 0
                CHANNELS 3 Yrotation Xrotation Zrotation
                JOINT rightIndexProximal
                {
                  OFFSET -0.5764487688300002 0.0441371204405987 0.17361932004999997
                  CHANNELS 3 Yrotation Xrotation Zrotation
                  JOINT rightIndexIntermediate
                  {
                    OFFSET -0.29573011380000047 -0.01934826376999843 -0.007698921482999974
                    CHANNELS 3 Yrotation Xrotation Zrotation
                    JOINT rightIndexDistal
                    {
                      OFFSET -0.19008373999999884 -0.012503266380000655 -0.0026365778999999897
                      CHANNELS 3 Yrotation Xrotation Zrotation
                      End Site
                      {
                        OFFSET -0.19008373999999884 -0.012503266380000655 -0.0026365778999999897
                      }
                    }
                  }
                }
                JOINT rightMiddleProximal
                {
                  OFFSET -0.5834852037300005 0.05211639405060153 0.02307162440000001
                  CHANNELS 3 Yrotation Xrotation Zrotation
                  JOINT rightMiddleIntermediate
                  {
                    OFFSET -0.33880114510000003 -0.019952774050000954 0.0002455003561999819
                    CHANNELS 3 Yrotation Xrotation Zrotation
                    JOINT rightMiddleDistal
                    {
                      OFFSET -0.20675694929999955 -0.012273788999999091 0.00030209124000002766
                      CHANNELS 3 Yrotation Xrotation Zrotation
                      End Site
                      {
                        OFFSET -0.20675694929999955 -0.012273788999999091 0.00030209124000002766
                      }
                    }
                  }
                }
                JOINT rightLittleProximal
                {
                  OFFSET -0.5346811737299992 -0.011214256288399227 -0.24363941305000003
                  CHANNELS 3 Yrotation Xrotation Zrotation
                  JOINT rightLittleIntermediate
                  {
                    OFFSET -0.21757715980000092 -0.011771559690000988 0.01201554387
                    CHANNELS 3 Yrotation Xrotation Zrotation
                    JOINT rightLittleDistal
                    {
                      OFFSET -0.1475201849000004 -0.00822055339600003 0.006082065407000015
                      CHANNELS 3 Yrotation Xrotation Zrotation
                      End Site
                      {
                        OFFSET -0.1475201849000004 -0.00822055339600003 0.006082065407000015
                      }
                    }
                  }
                }
                JOINT rightRingProximal
                {
                  OFFSET -0.5800810755299999 0.027657985680600072 -0.12066365025000003
                  CHANNELS 3 Yrotation Xrotation Zrotation
                  JOINT rightRingIntermediate
                  {
                    OFFSET -0.26166445029999974 -0.013623118409999302 0.011164098990000045
                    CHANNELS 3 Yrotation Xrotation Zrotation
                    JOINT rightRingDistal
                    {
                      OFFSET -0.17666387530000027 -0.009072900100000503 0.005668185599999959
                      CHANNELS 3 Yrotation Xrotation Zrotation
                      End Site
                      {
                        OFFSET -0.17666387530000027 -0.009072900100000503 0.005668185599999959
                      }
                    }
                  }
                }
                JOINT rightThumbProximal
                {
                  OFFSET -0.10997596379000074 -0.09577489355940072 0.16989765924999997
                  CHANNELS 3 Yrotation Xrotation Zrotation
                  JOINT rightThumbIntermediate
                  {
                    OFFSET -0.31036620999999986 -0.08229339117999834 0.15440884469999996
                    CHANNELS 3 Yrotation Xrotation Zrotation
                    JOINT rightThumbDistal
                    {
                      OFFSET -0.21631306399999906 -0.08825326400000111 0.018656797720000014
                      CHANNELS 3 Yrotation Xrotation Zrotation
                      End Site
                      {
                        OFFSET -0.21631306399999906 -0.08825326400000111 0.018656797720000014
                      }
                    }
                  }
                }
              }
            }
          }
        }
      }
    }
  }
}
MOTION
Frames: 9
Frame Time: 0.03333333333333333
-0.03627804652789979 -10.545644700461677 6.455087218822987 179.73040221425705 89.74743577378511 0 0.0010167359640897557 -2.0246460757975084 2.138973873192369 10.156340577799453 71.62370024914644 14.507471897974748 8.540230272001416 47.3011587343514 12.595299581691764 0 0 0 -0.22409963575475272 -1.752324690645036 0.4503466940136941 -153.06282231365364 75.41686653657577 -157.2300154116791 1.0261126860416414 23.061227279239105 -3.3444482814421175 0 0 0 -0.2228834875772721 -49.89952512897909 0.24066640928229946 0.10574144362226981 20.70909323809391 0.749409599465766 0 0 0 13.934505610768866 -36.864392711705705 -3.3751525447516038 -26.142359110728542 -30.705767863775222 -48.44891676168812 -119.34279447299623 52.448131358356086 -6.593643765179272 57.19518431559036 -49.25101300283463 -44.693492923255015 0 0 0 0 0 0 0 0 0 0 0 0 0 0 0 0 0 0 0 0 0 0 0 0 0 0 0 0 0 0 0 0 0 0 0 0 0 0 0 0 0 0 0 0 0 0 -6.3740971694770066 0 0 21.06547539607024 0 0 0 0 0 0 0 0 0 0 -41.44193733308397 -11.523886211083521 -9.048325395553938 36.64371054215112 -31.86558449178194 48.54480382576473 127.40053247556598 -9.294772958535303 15.114103940851805 -15.343835544488025 -30.20083257544405 -32.95996702650568 0 0 0 0 0 0 0 0 0 0 0 0 0 0 0 0 0 0 0 0 0 0 0 0 0 0 0 0 0 0 0 0 0 0 0 0 0 0 0 0 0 0 0 0 0
-0.03627804652789979 -10.545644700461677 6.455087218822987 179.73040221425705 89.74743577378511 0 0.0010167359640897557 -2.0246460757975084 2.138973873192369 10.156340577799453 71.62370024914644 14.507471897974748 8.540230272001416 47.3011587343514 12.595299581691764 0 0 0 -0.22409963575475272 -1.752324690645036 0.4503466940136941 -153.06282231365364 75.41686653657577 -157.2300154116791 1.0261126860416414 23.061227279239105 -3.3444482814421175 0 0 0 -0.22856986876278493 -51.09941590473 0.24805319548609664 0.10763809558898069 23.238710474332287 0.7545228580117437 0 0 0 14.049250535434133 -38.193133146933754 -2.9869767830616034 -26.142359110728542 -30.705767863775222 -48.44891676168812 -119.34279447299623 52.448131358356086 -6.593643765179272 57.67774620317959 -49.840323624313164 -44.78193325901237 0 0 0 0 0 0 0 0 0 0 0 0 0 0 0 0 0 0 0 0 0 0 0 0 0 0 0 0 0 0 0 0 0 0 0 0 0 0 0 0 0 0 0 0 0 0 -2.1247513560879216 0 0 19.20009486302139 0 0 0 0 0 0 0 0 0 0 -41.52473591769668 -12.980097453202312 -8.411057469539726 36.64371054215112 -31.86558449178194 48.54480382576473 127.40053247556598 -9.294772958535303 15.114103940851805 -15.438239854229012 -30.683523480275994 -33.176610407403615 0 0 0 0 0 0 0 0 0 0 0 0 0 0 0 0 0 0 0 0 0 0 0 0 0 0 0 0 0 0 0 0 0 0 0 0 0 0 0 0 0 0 0 0 0
-0.03627804652789979 -10.545644700461677 6.455087218822987 179.73040221425705 89.74743577378511 0 0.0010167359640897557 -2.0246460757975084 2.138973873192369 10.156340577799453 71.62370024914644 14.507471897974748 8.540230272001416 47.3011587343514 12.595299581691764 0 0 0 -0.22409963575475272 -1.752324690645036 0.4503466940136941 -153.06282231365364 75.41686653657577 -157.2300154116791 1.0261126860416414 23.061227279239105 -3.3444482814421175 0 0 0 -0.2315641648300697 -51.69959401097845 0.25189301526990177 0.10869512848450674 24.505760606734423 0.7571559775345504 0 0 0 14.10311320544268 -38.85808364107523 -2.7913685229460783 -26.142359110728542 -30.705767863775222 -48.44891676168812 -119.34279447299623 52.448131358356086 -6.593643765179272 57.92179876915884 -50.13484000224362 -44.8294572911167 0 0 0 0 0 0 0 0 0 0 0 0 0 0 0 0 0 0 0 0 0 0 0 0 0 0 0 0 0 0 0 0 0 0 0 0 0 0 0 0 0 0 0 0 0 0 0.010672620038296544 0 0 18.266499748396427 0 0 0 0 0 0 0 0 0 0 -41.572601415891384 -13.708345058840857 -8.089955768160372 36.64371054215112 -31.86558449178194 48.54480382576473 127.40053247556598 -9.294772958535303 15.114103940851805 -15.484822496262348 -30.925011528115753 -33.28501507429231 0 0 0 0 0 0 0 0 0 0 0 0 0 0 0 0 0 0 0 0 0 0 0 0 0 0 0 0 0 0 0 0 0 0 0 0 0 0 0 0 0 0 0 0 0
-0.03627804652789979 -10.545644700461677 6.455087218822987 179.73040221425705 89.74743577378511 0 0.0010167359640897557 -2.0246460757975084 2.138973873192369 10.156340577799453 71.62370024914644 14.507471897974748 8.540230272001416 47.3011587343514 12.595299581691764 0 0 0 -0.22409963575475272 -1.752324690645036 0.4503466940136941 -153.06282231365364 75.41686653657577 -157.2300154116791 1.0261126860416414 23.061227279239105 -3.3444482814421175 0 0 0 -0.2346652858267198 -52.29988207219413 0.2558365911218829 0.109829498416888 25.773904991924457 0.7598460543906106 0 0 0 14.154560969282942 -39.52336934304867 -2.5946609199012727 -26.142359110728542 -30.705767863775222 -48.44891676168812 -119.34278440057052 52.448131358356086 -6.5936416778412035 58.16779380501093 -50.42922907400422 -44.87926392128913 0 0 0 0 0 0 0 0 0 0 0 0 0 0 0 0 0 0 0 0 0 0 0 0 0 0 0 0 0 0 0 0 0 0 0 0 0 0 0 0 0 0 0 0 0 0 2.151327553955399 0 0 17.332479450713944 0 0 0 0 0 0 0 0 0 0 -41.62485998409714 -14.436569919139243 -7.767098657137262 36.64371054215112 -31.86558449178194 48.54480382576473 127.40053247556598 -9.294772958535303 15.114103940851805 -15.530994098634801 -31.16658404540569 -33.393460970404895 0 0 0 0 0 0 0 0 0 0 0 0 0 0 0 0 0 0 0 0 0 0 0 0 0 0 0 0 0 0 0 0 0 0 0 0 0 0 0 0 0 0 0 0 0
-0.03627804652789979 -10.545644700461677 6.455087218822987 179.73040221425705 89.74743577378511 0 0.0010167359640897557 -2.0246460757975084 2.138973873192369 10.156340577799453 71.62370024914644 14.507471897974748 8.540230272001416 47.3011587343514 12.595299581691764 0 0 0 -0.22409963575475272 -1.752324690645036 0.4503466940136941 -153.06282231365364 75.41686653657577 -157.2300154116791 1.0261126860416414 23.061227279239105 -3.3444482814421175 0 0 0 -0.24120671107724356 -53.5006764319961 0.264055092711012 0.11234097983757074 28.312207752173663 0.7654074345943517 0 0 0 14.24994416708269 -40.85463453371869 -2.197650880848065 -26.142359110728542 -30.705767863775222 -48.44891676168812 -119.34279447299623 52.448131358356086 -6.593643765179272 58.665675062705766 -51.017641782141176 -44.985841054535584 0 0 0 0 0 0 0 0 0 0 0 0 0 0 0 0 0 0 0 0 0 0 0 0 0 0 0 0 0 0 0 0 0 0 0 0 0 0 0 0 0 0 0 0 0 0 6.442403662821089 0 0 15.46362431036562 0 0 0 0 0 0 0 0 0 0 -41.742735587225404 -15.892543190243124 -7.115727350840633 36.64371054215112 -31.86558449178194 48.54480382576473 127.40053247556598 -9.294772958535303 15.114103940851805 -15.622087001158256 -31.649954222589432 -33.610510943298195 0 0 0 0 0 0 0 0 0 0 0 0 0 0 0 0 0 0 0 0 0 0 0 0 0 0 0 0 0 0 0 0 0 0 0 0 0 0 0 0 0 0 0 0 0
-0.03627804652789979 -10.545644700461677 6.455087218822987 179.73040221425705 89.74743577378511 0 0.0010167359640897557 -2.0246460757975084 2.138973873192369 10.156340577799453 71.62370024914644 14.507471897974748 8.540230272001416 47.3011587343514 12.595299581691764 0 0 0 -0.22409963575475272 -1.752324690645036 0.4503466940136941 -153.06282231365364 75.41686653657577 -157.2300154116791 1.0261126860416414 23.061227279239105 -3.3444482814421175 0 0 0 -0.24465954524262976 -54.10112656767751 0.2683421664698829 0.11372691144172624 29.58175018258151 0.7682879000678695 0 0 0 14.293751110317004 -41.52052387304727 -1.9972036707165413 -26.142359110728542 -30.705767863775222 -48.44891676168812 -119.34279447299623 52.448131358356086 -6.593643765179272 58.91769910770509 -51.31163823966648 -45.04273492924439 0 0 0 0 0 0 0 0 0 0 0 0 0 0 0 0 0 0 0 0 0 0 0 0 0 0 0 0 0 0 0 0 0 0 0 0 0 0 0 0 0 0 0 0 0 0 8.589824838260993 0 0 14.52903844471481 0 0 0 0 0 0 0 0 0 0 -41.80848585275843 -16.62010359816035 -6.787029240769856 36.643707315753765 -31.86558851290416 48.544806839489986 127.40053247556598 -9.294772958535303 15.114103940851805 -15.667003019644037 -31.89176571608073 -33.71912883057117 0 0 0 0 0 0 0 0 0 0 0 0 0 0 0 0 0 0 0 0 0 0 0 0 0 0 0 0 0 0 0 0 0 0 0 0 0 0 0 0 0 0 0 0 0
-0.03627804652789979 -10.545644700461677 6.455087218822987 179.73040221425705 89.74743577378511 0 0.0010167359640897557 -2.0246460757975084 2.138973873192369 10.156340577799453 71.62370024914644 14.507471897974748 8.540230272001416 47.3011587343514 12.595299581691764 0 0 0 -0.22409963575475272 -1.752324690645036 0.4503466940136941 -153.06282231365364 75.41686653657577 -157.2300154116791 1.0261126860416414 23.061227279239105 -3.3444482814421175 0 0 0 -0.24823922792858832 -54.70155649995656 0.2727535186826534 0.11520452391058689 30.851136085413934 0.7712408307003948 0 0 0 14.334868303075986 -42.18648766212048 -1.7953511755587115 -26.142359110728542 -30.705767863775222 -48.44891676168812 -119.34278440057052 52.448131358356086 -6.5936416778412035 59.17176392503177 -51.605452120190584 -45.10203917144616 0 0 0 0 0 0 0 0 0 0 0 0 0 0 0 0 0 0 0 0 0 0 0 0 0 0 0 0 0 0 0 0 0 0 0 0 0 0 0 0 0 0 0 0 0 0 10.736493776871509 0 0 13.594516992663975 0 0 0 0 0 0 0 0 0 0 -41.8788588715474 -17.347258877631074 -6.456199707645081 36.643707315753765 -31.86558851290416 48.544806839489986 127.40053247556598 -9.294772958535303 15.114103940851805 -15.71149699925908 -32.133633178465004 -33.82779930405644 0 0 0 0 0 0 0 0 0 0 0 0 0 0 0 0 0 0 0 0 0 0 0 0 0 0 0 0 0 0 0 0 0 0 0 0 0 0 0 0 0 0 0 0 0
-0.03627804652789979 -10.545644700461677 6.455087218822987 179.73040221425705 89.74743577378511 0 0.0010167359640897557 -2.0246460757975084 2.138973873192369 10.156340577799453 71.62370024914644 14.507471897974748 8.540230272001416 47.3011587343514 12.595299581691764 0 0 0 -0.22409963575475272 -1.752324690645036 0.4503466940136941 -153.06282231365364 75.41686653657577 -157.2300154116791 1.0261126860416414 23.061227279239105 -3.3444482814421175 0 0 0 -0.2558120751933922 -55.90222285789642 0.2819812064001761 0.1184562690369619 33.38819804621021 0.7773875295013866 0 0 0 14.408733544957439 -43.51845646650751 -1.3870954326625609 -26.142359110728542 -30.705767863775222 -48.44891676168812 -119.34279447299623 52.448131358356086 -6.593643765179272 59.6864086851215 -52.192549150494045 -45.22820688458033 0 0 0 0 0 0 0 0 0 0 0 0 0 0 0 0 0 0 0 0 0 0 0 0 0 0 0 0 0 0 0 0 0 0 0 0 0 0 0 0 0 0 0 0 0 0 15.02155734656579 0 0 11.726157887160015 0 0 0 0 0 0 0 0 0 0 -42.03373962794976 -18.79994704725076 -5.787731903896396 36.643707315753765 -31.86558851290416 48.54480382576473 127.40053247556598 -9.294772958535303 15.114103940851805 -15.799207481347013 -32.617587581156805 -34.045359921705796 0 0 0 0 0 0 0 0 0 0 0 0 0 0 0 0 0 0 0 0 0 0 0 0 0 0 0 0 0 0 0 0 0 0 0 0 0 0 0 0 0 0 0 0 0
-0.03627804652789979 -10.545644700461677 6.455087218822987 179.73040221425705 89.74743577378511 0 0.0010167359640897557 -2.0246460757975084 2.138973873192369 10.156340577799453 71.62370024914644 14.507471897974748 8.540230272001416 47.3011587343514 12.595299581691764 0 0 0 -0.22409963575475272 -1.752324690645036 0.4503466940136941 -153.06282231365364 75.41686653657577 -157.2300154116791 1.0261126860416414 23.061227279239105 -3.3444482814421175 0 0 0 -0.25981924972025844 -56.502409749386516 0.2868106420994504 0.12023985165013468 34.655243447246406 0.780590892904493 0 0 0 14.441308525630857 -44.18432728338439 -1.1805065740578362 -26.142359110728542 -30.705767863775222 -48.44891676168812 -119.34279447299623 52.448131358356086 -6.593643765179272 59.94708316653268 -52.48580723966759 -45.29516507001442 0 0 0 0 0 0 0 0 0 0 0 0 0 0 0 0 0 0 0 0 0 0 0 0 0 0 0 0 0 0 0 0 0 0 0 0 0 0 0 0 0 0 0 0 0 0 17.156977231086483 0 0 10.79256421488606 0 0 0 0 0 0 0 0 0 0 -42.118401398252416 -19.525290608293684 -5.449890509836375 36.643707315753765 -31.86558851290416 48.54480382576473 127.40053247556598 -9.294772958535303 15.114103940851805 -15.842414713530092 -32.85964779168302 -34.154244955082916 0 0 0 0 0 0 0 0 0 0 0 0 0 0 0 0 0 0 0 0 0 0 0 0 0 0 0 0 0 0 0 0 0 0 0 0 0 0 0 0 0 0 0 0 0
